<svg id="visual" viewBox="0 0 600 900" width="600" height="900" xmlns="http://www.w3.org/2000/svg" xmlns:xlink="http://www.w3.org/1999/xlink" version="1.1"><path d="M544 0L533.3 30C522.7 60 501.3 120 424.2 180C347 240 214 300 219 360C224 420 367 480 389.2 540C411.3 600 312.7 660 270 720C227.3 780 240.7 840 247.3 870L254 900L0 900L0 870C0 840 0 780 0 720C0 660 0 600 0 540C0 480 0 420 0 360C0 300 0 240 0 180C0 120 0 60 0 30L0 0Z" fill="#241407" stroke-linecap="round" stroke-linejoin="miter"></path></svg>