<svg id="visual" viewBox="0 0 450 900" width="450" height="900" xmlns="http://www.w3.org/2000/svg" xmlns:xlink="http://www.w3.org/1999/xlink" version="1.1"><path d="M326 900L304.8 875C283.7 850 241.3 800 241.5 750C241.7 700 284.3 650 304.7 600C325 550 323 500 296.8 450C270.7 400 220.3 350 227 300C233.7 250 297.3 200 328.2 150C359 100 357 50 356 25L355 0L450 0L450 25C450 50 450 100 450 150C450 200 450 250 450 300C450 350 450 400 450 450C450 500 450 550 450 600C450 650 450 700 450 750C450 800 450 850 450 875L450 900Z" fill="#241407" stroke-linecap="round" stroke-linejoin="miter"></path></svg>