<svg id="visual" viewBox="0 0 450 900" width="450" height="900" xmlns="http://www.w3.org/2000/svg" xmlns:xlink="http://www.w3.org/1999/xlink" version="1.1"><path d="M289 0L287.8 30C286.7 60 284.3 120 264.7 180C245 240 208 300 212.7 360C217.3 420 263.7 480 265 540C266.3 600 222.7 660 210.8 720C199 780 219 840 229 870L239 900L0 900L0 870C0 840 0 780 0 720C0 660 0 600 0 540C0 480 0 420 0 360C0 300 0 240 0 180C0 120 0 60 0 30L0 0Z" fill="#322306" stroke-linecap="round" stroke-linejoin="miter"></path></svg>