<svg id="visual" viewBox="0 0 450 900" width="450" height="900" xmlns="http://www.w3.org/2000/svg" xmlns:xlink="http://www.w3.org/1999/xlink" version="1.1"><path d="M247 900L254.5 875C262 850 277 800 270.5 750C264 700 236 650 247.8 600C259.7 550 311.3 500 322.7 450C334 400 305 350 282.3 300C259.7 250 243.3 200 254 150C264.7 100 302.3 50 321.2 25L340 0L450 0L450 25C450 50 450 100 450 150C450 200 450 250 450 300C450 350 450 400 450 450C450 500 450 550 450 600C450 650 450 700 450 750C450 800 450 850 450 875L450 900Z" fill="#322306" stroke-linecap="round" stroke-linejoin="miter"></path></svg>