<svg id="visual" viewBox="0 0 900 600" width="900" height="600" xmlns="http://www.w3.org/2000/svg" xmlns:xlink="http://www.w3.org/1999/xlink" version="1.1"><path d="M645 600L655 583.3C665 566.7 685 533.3 678.7 500C672.3 466.7 639.7 433.3 642.2 400C644.7 366.7 682.3 333.3 688.3 300C694.3 266.7 668.7 233.3 646.8 200C625 166.7 607 133.3 606.3 100C605.7 66.7 622.3 33.3 630.7 16.7L639 0L900 0L900 16.7C900 33.3 900 66.7 900 100C900 133.3 900 166.7 900 200C900 233.3 900 266.7 900 300C900 333.3 900 366.7 900 400C900 433.3 900 466.7 900 500C900 533.3 900 566.7 900 583.3L900 600Z" fill="#1c1403"></path><path d="M714 600L724.2 583.3C734.3 566.7 754.7 533.3 760.2 500C765.7 466.7 756.3 433.3 764.3 400C772.3 366.7 797.7 333.3 789.5 300C781.3 266.7 739.7 233.3 724.5 200C709.3 166.7 720.7 133.3 730 100C739.3 66.7 746.7 33.3 750.3 16.7L754 0L900 0L900 16.7C900 33.3 900 66.7 900 100C900 133.3 900 166.7 900 200C900 233.3 900 266.7 900 300C900 333.3 900 366.7 900 400C900 433.3 900 466.7 900 500C900 533.3 900 566.7 900 583.3L900 600Z" fill="#000000"></path></svg>